<svg width="50" height="50" fill="none" xmlns="http://www.w3.org/2000/svg"><g clip-path="url(#clip0_41_89)" fill="#C4986E"><path d="M11.256 37.67a.806.806 0 00-.772-.573H7.888l-.653-2.615a.807.807 0 00-1.565 0l-.654 2.615H2.42a.806.806 0 00-.448 1.477l1.947 1.298-.669 2.675a.806.806 0 001.282.83l1.92-1.513 1.92 1.512a.805.805 0 001.282-.83l-.669-2.674 1.947-1.298a.805.805 0 00.324-.904zm-3.638 1.175a.807.807 0 00-.336.867l.235.939-.566-.446a.805.805 0 00-.998 0l-.566.446.234-.939a.807.807 0 00-.335-.867l-.203-.135h.563c.37 0 .692-.252.782-.611l.024-.096.024.096c.09.36.412.611.782.611h.563l-.203.135zm14.929-1.175a.806.806 0 00-.771-.573h-2.597l-.653-2.615a.807.807 0 00-1.565 0l-.654 2.615h-2.596a.806.806 0 00-.448 1.477l1.947 1.298-.669 2.675a.806.806 0 001.281.83l1.921-1.513 1.921 1.512a.805.805 0 00.937.043.807.807 0 00.344-.873l-.669-2.674 1.947-1.298a.806.806 0 00.324-.904zm-3.638 1.175a.807.807 0 00-.335.867l.234.939-.566-.446a.805.805 0 00-.998 0l-.566.446.235-.939a.807.807 0 00-.335-.867l-.204-.135h.563c.37 0 .692-.252.782-.611l.024-.097.024.097c.09.359.412.61.782.61h.563l-.203.136zm18.155-1.175a.807.807 0 00-.772-.573h-2.596l-.654-2.615a.807.807 0 00-1.565 0l-.654 2.615h-2.596a.806.806 0 00-.447 1.477l1.946 1.298-.668 2.675a.806.806 0 001.281.83l1.92-1.513 1.921 1.512a.805.805 0 001.281-.83l-.668-2.674 1.946-1.298a.806.806 0 00.325-.904zm-3.64 1.175a.807.807 0 00-.334.867l.234.939-.566-.446a.805.805 0 00-.998 0l-.566.446.235-.939a.807.807 0 00-.335-.867l-.203-.135h.562c.37 0 .693-.252.782-.611l.024-.097.024.097c.09.359.413.61.783.61h.562l-.203.136zm14.93-1.175a.806.806 0 00-.772-.573h-2.596l-.654-2.615a.806.806 0 00-1.564 0l-.654 2.615h-2.596a.806.806 0 00-.448 1.477l1.947 1.298-.669 2.675a.806.806 0 001.282.83l1.92-1.513 1.921 1.512a.805.805 0 00.937.043.807.807 0 00.344-.873l-.669-2.674 1.947-1.298a.806.806 0 00.324-.904zm-3.638 1.175a.807.807 0 00-.335.867l.234.939-.566-.446a.805.805 0 00-.998 0l-.566.446.235-.939a.807.807 0 00-.335-.867l-.204-.135h.563c.37 0 .692-.252.782-.611l.024-.097.024.097c.09.359.412.61.782.61h.563l-.203.136zM0 45.161h50.002v1.613H0v-1.613zm0 3.226h50.002V50H0v-1.613z"/><path d="M50.002 29.032v-1.613H38.347c.37-.468.725-.952 1.062-1.45a23.993 23.993 0 004.14-13.502V2.913l-4.176 1.393a10.357 10.357 0 01-3.284.533c-2.774 0-5.382-1.08-7.344-3.042l-.42-.42A4.67 4.67 0 0025.001 0a4.671 4.671 0 00-3.324 1.377l-.42.42a10.317 10.317 0 01-7.343 3.042c-1.118 0-2.223-.18-3.284-.533L6.452 2.913v9.554c0 4.832 1.432 9.5 4.14 13.501.338.499.693.983 1.063 1.451H.001v1.613h13.05a23.905 23.905 0 001.681 1.613H0v1.613h16.808a24.125 24.125 0 004.783 2.57 9.14 9.14 0 003.41.656 9.14 9.14 0 003.41-.657 24.13 24.13 0 004.783-2.57h16.807v-1.612H35.269a24.058 24.058 0 001.68-1.613h13.053zm-22.19 4.298a7.534 7.534 0 01-2.812.54 7.534 7.534 0 01-2.81-.541C13.608 29.897 8.064 21.708 8.064 12.467V5.15l2.054.684a11.98 11.98 0 003.794.616 11.92 11.92 0 008.484-3.514l.42-.42A3.067 3.067 0 0125 1.611c.825 0 1.6.321 2.183.905l.42.42a11.921 11.921 0 008.484 3.514 11.96 11.96 0 003.794-.616l2.054-.684v7.316c0 9.241-5.544 17.43-14.125 20.863z"/><path d="M36.089 8.064a13.52 13.52 0 01-9.625-3.987l-.42-.42a1.465 1.465 0 00-1.043-.432 1.46 1.46 0 00-1.042.432l-.42.42a13.523 13.523 0 01-9.625 3.987c-1.091 0-2.18-.132-3.237-.39l-.999-.246v5.039a20.78 20.78 0 003.586 11.693 20.78 20.78 0 009.525 7.672 5.934 5.934 0 002.212.426c.761 0 1.505-.144 2.212-.426a20.781 20.781 0 009.525-7.672 20.78 20.78 0 003.586-11.693V7.428l-.998.245c-1.057.26-2.146.391-3.237.391zm2.622 4.403c0 3.86-1.144 7.591-3.308 10.788a19.172 19.172 0 01-8.789 7.08 4.326 4.326 0 01-3.225 0 19.171 19.171 0 01-8.789-7.08 19.174 19.174 0 01-3.309-10.788V9.449a15.25 15.25 0 002.623.228c4.066 0 7.89-1.584 10.764-4.46l.323-.322.323.323a15.124 15.124 0 0010.764 4.459c.88 0 1.758-.077 2.623-.228v3.018z"/><path d="M25.001 8.962l-4.276 6.841-5.697-3.797 2.031 12.188h15.883l2.031-12.188-5.696 3.797L25 8.962zm6.575 13.619h-13.15l-1.195-7.167 3.981 2.653 3.79-6.061 3.788 6.061 3.981-2.653-1.195 7.167z"/></g><defs><clipPath id="clip0_41_89"><path fill="#fff" d="M0 0h50v50H0z"/></clipPath></defs></svg>