<svg width="176" height="200" fill="none" xmlns="http://www.w3.org/2000/svg"><g opacity=".15" clip-path="url(#clip0_41_34)"><path fill-rule="evenodd" clip-rule="evenodd" d="M100 0C44.817 0 0 44.817 0 100c0 55.162 44.817 100 100 100s100-44.838 100-100C200 44.817 155.183 0 100 0zm0 10.015c2.984 0 6.265 1.664 9.8 5.824 3.536 4.16 6.993 10.689 9.944 18.893 2.007 5.58 3.804 11.979 5.255 18.964a170.087 170.087 0 01-25.001 1.846c-8.493 0-16.78-.635-24.93-1.846 1.453-6.98 3.178-13.387 5.184-18.964 2.952-8.204 6.477-14.733 10.015-18.893 3.539-4.16 6.746-5.824 9.731-5.824H100zm17.329.71c20.584 3.947 38.601 14.829 51.705 30.113a167.789 167.789 0 01-35.085 11.292c-1.543-7.466-3.404-14.388-5.611-20.525-3.051-8.486-6.694-15.555-11.008-20.88h-.001zm-34.658.071c-4.296 5.319-7.895 12.353-10.937 20.809-2.209 6.135-4.067 13.06-5.61 20.525-12.268-2.503-24.007-6.289-35.157-11.292a90.593 90.593 0 0151.705-30.042h-.001zm-57.387 37.43A176.92 176.92 0 0064.49 61.081c-1.765 11.076-2.773 23.203-2.912 35.938H9.163c.582-18.115 6.465-34.866 16.123-48.794l-.002.001zm149.505 0c9.653 13.924 15.468 30.681 16.052 48.795h-52.346c-.138-12.735-1.151-24.863-2.912-35.938a176.832 176.832 0 0039.205-12.856l.001-.001zM73.438 62.643A178.764 178.764 0 00100 64.63c9.052 0 17.944-.682 26.634-1.988 1.667 10.53 2.628 22.16 2.769 34.374H70.665c.141-12.213 1.1-23.845 2.77-34.374h.003zM9.375 106.109h52.2c.262 11.603 1.287 22.638 2.912 32.813a176.745 176.745 0 00-39.205 12.856c-9.098-13.122-14.79-28.758-15.909-45.666l.002-.003zm61.291 0h58.665c-.262 11.089-1.169 21.606-2.7 31.25a179.24 179.24 0 00-26.633-1.988c-9.024 0-17.898.621-26.563 1.918-1.526-9.625-2.508-20.116-2.77-31.179l.001-.001zm67.756 0h52.272c-1.119 16.906-6.815 32.548-15.908 45.665a176.787 176.787 0 00-39.206-12.855c1.622-10.173 2.58-21.21 2.841-32.814l.001.004zM100 144.459c8.494 0 16.85.639 25 1.847-1.45 6.984-3.25 13.382-5.255 18.964-2.95 8.206-6.406 14.731-9.943 18.893-3.537 4.161-6.819 5.824-9.8 5.824-2.984 0-6.193-1.663-9.731-5.824-3.539-4.162-7.061-10.687-10.015-18.893-2.007-5.579-3.732-11.983-5.184-18.964a169.535 169.535 0 0124.93-1.847H100zm-33.88 3.409c1.543 7.446 3.41 14.331 5.611 20.454 3.063 8.513 6.674 15.618 11.009 20.951-20.58-3.947-38.673-14.832-51.774-30.113 11.158-5.008 22.88-8.792 35.157-11.292h-.002zm67.826 0c12.222 2.493 23.971 6.241 35.084 11.221-13.104 15.295-31.113 26.234-51.704 30.184 4.323-5.33 7.952-12.449 11.008-20.951 2.202-6.125 4.07-13.008 5.611-20.454h.001z" fill="#fff"/></g><defs><clipPath id="clip0_41_34"><path fill="#fff" d="M0 0h200v200H0z"/></clipPath></defs></svg>