<svg width="176" height="200" fill="none" xmlns="http://www.w3.org/2000/svg"><g opacity=".15" fill="#fff"><path d="M182.381 16a17.563 17.563 0 00-14.149 7.162l-42.225 42.221-2.994-7.761h-.001a3.137 3.137 0 00-2.926-2.008H65.167a3.136 3.136 0 00-3.136 3.136v47.117H50.818V83.878a3.139 3.139 0 00-3.136-3.136h-6.699V60.943a3.137 3.137 0 00-3.135-3.136H26.98a3.135 3.135 0 100 6.272h7.733v16.67H6.273a3.136 3.136 0 00-3.135 3.136v50.299-.001a3.133 3.133 0 003.136 3.136h43.862v12.747H17.301a17.301 17.301 0 100 34.601H128.46a17.302 17.302 0 000-34.601H95.628v-12.753h43.859a3.136 3.136 0 003.136-3.136v-25.175c-.02-.2-.061-.397-.119-.589a3.316 3.316 0 00-.091-.542l-.035-.088-3.814-9.878 30.813-30.813.001 59.356-21.346 21.359a3.135 3.135 0 002.22 5.353h33.883a15.175 15.175 0 0010.71-4.443 15.18 15.18 0 004.443-10.71V38.513a17.56 17.56 0 00-16.906-22.512l-.001-.001zm0 6.272a11.345 11.345 0 11-11.349 11.342 11.36 11.36 0 0111.349-11.342zM68.304 61.884h49.636l16.967 43.963-66.601.002-.002-43.965zM44.547 87.01v18.853H9.411v-18.85l35.136-.003zm70.595 69.304a17.251 17.251 0 000 22.057H30.617a17.247 17.247 0 000-22.057h84.525zM6.269 167.359a11.034 11.034 0 1118.834 7.802 11.035 11.035 0 01-7.801 3.231 11.048 11.048 0 01-7.8-3.234 11.047 11.047 0 01-3.233-7.799zm133.221 0h.002a11.033 11.033 0 11-18.835-7.794 11.032 11.032 0 017.802-3.231 11.045 11.045 0 0111.032 11.024l-.001.001zm-50.134-17.296H56.409v-12.748h32.947v12.748zm46.995-19.02H9.411V112.14h126.94v18.903zm-7.871-59.269l36.376-36.376a17.661 17.661 0 0012.301 15.03L136.1 91.467l-7.62-19.693zm47.167-10.975l9.884-9.884v-.001a17.49 17.49 0 007.485-3.308v55.191l-17.369 17.369V60.799zm17.369 77.174a8.89 8.89 0 01-8.881 8.893h-26.313l35.187-35.187.007 26.294z"/><path d="M26.983 115.584a3.135 3.135 0 00-3.136 3.136v5.738a3.135 3.135 0 106.272 0v-5.738c0-.832-.33-1.63-.92-2.217a3.134 3.134 0 00-2.216-.919zm14.622 0a3.136 3.136 0 00-3.136 3.136v5.738a3.136 3.136 0 006.272 0v-5.738a3.133 3.133 0 00-3.136-3.136zm77.382-25.097l-5.986-15.475a3.136 3.136 0 10-5.852 2.26l5.977 15.472h.001a3.135 3.135 0 004.021 1.711 3.135 3.135 0 001.827-3.968h.012z"/></g></svg>