<svg width="50" height="50" fill="none" xmlns="http://www.w3.org/2000/svg"><g clip-path="url(#clip0_41_39)"><path fill-rule="evenodd" clip-rule="evenodd" d="M25 0C11.204 0 0 11.204 0 25c0 13.79 11.204 25 25 25s25-11.21 25-25C50 11.204 38.796 0 25 0zm0 2.504c.746 0 1.566.416 2.45 1.456.884 1.04 1.748 2.672 2.486 4.723a35.38 35.38 0 011.314 4.74 42.52 42.52 0 01-12.483 0c.363-1.744.794-3.346 1.296-4.74.738-2.051 1.62-3.683 2.504-4.723.884-1.04 1.686-1.456 2.433-1.456zm4.332.177c5.146.987 9.65 3.707 12.926 7.529a41.938 41.938 0 01-8.77 2.823c-.386-1.867-.852-3.598-1.403-5.132-.763-2.121-1.674-3.889-2.753-5.22zm-8.664.018c-1.074 1.33-1.974 3.088-2.735 5.202-.552 1.534-1.016 3.265-1.402 5.132a41.868 41.868 0 01-8.79-2.823 22.648 22.648 0 0112.927-7.511zM6.32 12.056a44.235 44.235 0 009.801 3.214c-.44 2.77-.693 5.801-.728 8.985H2.291a22.619 22.619 0 014.03-12.199zm37.376 0a22.614 22.614 0 014.013 12.2H34.624c-.035-3.185-.288-6.217-.728-8.985a44.212 44.212 0 009.801-3.214zM18.36 15.662a44.687 44.687 0 0013.3 0c.416 2.632.657 5.54.692 8.593H17.666c.036-3.053.275-5.96.693-8.593zM2.345 26.527h13.05c.065 2.9.322 5.66.728 8.203a44.179 44.179 0 00-9.802 3.214 22.601 22.601 0 01-3.977-11.416zm15.322 0h14.667c-.066 2.772-.292 5.402-.675 7.813A44.815 44.815 0 0025 33.843a44.86 44.86 0 00-6.64.48 58.869 58.869 0 01-.693-7.795zm16.94 0h13.068a22.61 22.61 0 01-3.978 11.417 44.197 44.197 0 00-9.8-3.214c.404-2.543.644-5.303.71-8.204v.001zM25 36.115c2.123 0 4.213.16 6.25.462a35.474 35.474 0 01-1.314 4.74C29.2 43.37 28.335 45 27.451 46.041c-.885 1.04-1.705 1.456-2.45 1.456-.747 0-1.549-.416-2.433-1.456-.885-1.04-1.766-2.672-2.504-4.723-.502-1.395-.933-2.996-1.296-4.741A42.382 42.382 0 0125 36.115zm-8.47.852c.386 1.861.852 3.583 1.403 5.113.766 2.129 1.668 3.905 2.752 5.238A22.685 22.685 0 017.742 39.79a41.743 41.743 0 018.789-2.823zm16.956 0a41.924 41.924 0 018.772 2.805c-3.277 3.824-7.779 6.559-12.927 7.546 1.081-1.332 1.989-3.112 2.753-5.238.55-1.53 1.017-3.252 1.402-5.113z" fill="#fff"/></g><defs><clipPath id="clip0_41_39"><path fill="#fff" d="M0 0h50v50H0z"/></clipPath></defs></svg>