<svg width="50" height="50" fill="none" xmlns="http://www.w3.org/2000/svg"><path d="M12.252 50c-.225 0-.46-.049-.676-.157a1.543 1.543 0 01-.89-1.42l.018-3.114a10.907 10.907 0 01-6.62-3.27A10.877 10.877 0 011 34.44c0-6.032 4.906-10.938 10.938-10.938h12.847c2.909 0 5.65 1.136 7.726 3.212a10.936 10.936 0 012.439 3.692c.519 1.283.773 2.644.773 4.034 0 6.032-4.906 10.938-10.938 10.938h-6.13a.574.574 0 00-.352.127l-5.062 4.143a1.549 1.549 0 01-.99.352h.001zm-.314-24.04c-4.68 0-8.49 3.809-8.49 8.49a8.44 8.44 0 002.4 5.895 8.42 8.42 0 005.787 2.595 1.58 1.58 0 011.528 1.586l-.01 2.047 3.603-2.938a3.013 3.013 0 011.91-.676h6.13c4.68 0 8.49-3.809 8.49-8.49a8.48 8.48 0 00-.597-3.123 8.604 8.604 0 00-1.89-2.87 8.441 8.441 0 00-5.993-2.496H11.939v-.02z" fill="#C4986E"/><path d="M25.403 36.429a1.818 1.818 0 001.822-1.822 1.818 1.818 0 00-1.822-1.821 1.818 1.818 0 00-1.822 1.821 1.83 1.83 0 001.822 1.822zm-7.148 0a1.818 1.818 0 001.822-1.822 1.818 1.818 0 00-1.822-1.821c-.999 0-1.822.813-1.822 1.821 0 1.01.813 1.822 1.822 1.822zm-7.158 0c.999 0 1.822-.813 1.822-1.822a1.818 1.818 0 00-1.822-1.821 1.818 1.818 0 00-1.821 1.821 1.83 1.83 0 001.821 1.822zm26.87-9.94c-.353 0-.705-.118-.99-.362l-5.052-4.133a.574.574 0 00-.352-.127h-6.13c-6.033 0-10.939-4.906-10.939-10.938a10.885 10.885 0 013.212-7.726C19.793 1.146 22.535 0 25.442 0H38.29c6.032 0 10.938 4.906 10.938 10.938 0 2.84-1.097 5.542-3.085 7.599a10.854 10.854 0 01-6.62 3.27l.02 3.114a1.56 1.56 0 01-.892 1.42 1.72 1.72 0 01-.684.148zM25.443 2.449a8.402 8.402 0 00-5.993 2.496 8.321 8.321 0 00-1.89 2.87 8.323 8.323 0 00-.597 3.123c0 4.68 3.809 8.49 8.49 8.49h6.13c.695 0 1.37.245 1.899.676l3.604 2.947-.01-2.046c0-.852.666-1.547 1.517-1.587a8.46 8.46 0 005.797-2.595 8.427 8.427 0 002.39-5.895c0-4.68-3.81-8.49-8.49-8.49H25.442v.01z" fill="#C4986E"/><path d="M27.175 13.182c-.225 0-.47-.265-.5-.54l-.391-6.501a1.3 1.3 0 01.382-.95c.264-.265.578-.392.95-.392h.127c.323 0 1.283.196 1.175 1.44l-.382 6.404c-.03.225-.235.539-.519.539h-.842zm6.493-.098a.462.462 0 01-.46-.47c.019-.588.078-1.068.185-1.42.127-.431.529-.91 1.205-1.469.313-.245.577-.5.812-.754.206-.235.304-.529.304-.871 0-.784-.323-1.215-.96-1.313-.156-.03-.293-.03-.42-.03-.451 0-.784.138-1.02.412-.127.127-.234.431-.303.715a.85.85 0 01-.724.617c-.373.039-.803.069-1.01.058-.489-.03-.724-.391-.724-1.077 0-.715.392-1.459.93-1.978.47-.411 1.137-.724 1.88-.89a4.523 4.523 0 011.048-.109c.392 0 .794.05 1.205.147a3.89 3.89 0 011.91 1.077c.548.558.812 1.312.812 2.262 0 .764-.157 1.352-.47 1.763a5.49 5.49 0 01-.999 1.018c-.303.245-.627.51-.94.803-.264.245-.382.598-.362 1.038a.45.45 0 01-.45.45l-1.45.02zm1.214.685c.46 0 .832.372.832.832v.91a.82.82 0 01-.822.823h-.92a.831.831 0 01-.833-.832v-.734c0-.676.324-1.01.98-1.01h.763v.011zm-6.806 0c.46 0 .832.372.832.832v.91a.82.82 0 01-.822.823h-.92a.831.831 0 01-.832-.832v-.734c0-.676.323-1.01.979-1.01h.763v.011z" fill="#C4986E"/></svg>