<svg width="50" height="50" fill="none" xmlns="http://www.w3.org/2000/svg"><path d="M45.595 4a4.39 4.39 0 00-3.537 1.79L31.502 16.346l-.749-1.94a.784.784 0 00-.732-.502h-13.73a.784.784 0 00-.783.784v11.779h-2.803V20.97a.785.785 0 00-.784-.784h-1.675v-4.95a.784.784 0 00-.784-.784H6.745a.784.784 0 100 1.568h1.933v4.167h-7.11a.784.784 0 00-.784.784v12.575a.783.783 0 00.784.784h10.966v3.187H4.325a4.325 4.325 0 100 8.65h27.79a4.325 4.325 0 100-8.65h-8.208v-3.189h10.965a.784.784 0 00.784-.784v-6.293a.754.754 0 00-.03-.148.804.804 0 00-.023-.135l-.009-.022-.953-2.47 7.703-7.703v14.839l-5.336 5.34a.784.784 0 00.555 1.338h8.47a3.794 3.794 0 003.789-3.788V9.628A4.392 4.392 0 0045.595 4zm0 1.568a2.836 2.836 0 11-.002 5.673 2.836 2.836 0 01.002-5.673zM17.076 15.47h12.41l4.24 10.99-16.65.001v-10.99zm-5.94 6.282v4.713H2.354v-4.713h8.784zm17.65 17.326a4.312 4.312 0 000 5.514H7.653a4.312 4.312 0 000-5.514h21.131zm-27.219 2.76a2.76 2.76 0 115.519.002 2.76 2.76 0 01-5.519-.001zm33.306 0a2.758 2.758 0 11-5.515.004 2.758 2.758 0 015.515-.003zm-12.534-4.323h-8.237v-3.187h8.237v3.187zm11.749-4.755H2.353v-4.726h31.735v4.726zM32.12 17.943l9.094-9.093a4.414 4.414 0 003.075 3.757l-10.264 10.26-1.905-4.924zM43.912 15.2l2.47-2.471a4.372 4.372 0 001.872-.828V25.7l-4.342 4.342V15.2zm4.342 19.293a2.223 2.223 0 01-2.22 2.224h-6.578l8.796-8.797.002 6.573z" fill="#fff"/><path d="M6.746 28.896a.784.784 0 00-.784.784v1.435a.784.784 0 101.568 0V29.68a.783.783 0 00-.784-.784zm3.655 0a.784.784 0 00-.784.784v1.435a.784.784 0 001.568 0V29.68a.784.784 0 00-.784-.784zm19.346-6.274l-1.497-3.87a.784.784 0 10-1.463.566l1.494 3.868a.784.784 0 001.463-.564h.003z" fill="#fff"/></svg>