<svg width="50" height="50" fill="none" xmlns="http://www.w3.org/2000/svg"><g clip-path="url(#clip0_41_56)" fill="#C4986E"><path d="M49.128 24.126A24.199 24.199 0 0022.75.098a.77.77 0 00-.675.833.775.775 0 00.822.674 22.618 22.618 0 114.438 45.02l-.01-1.843-4.498 2.61L27.334 50v-1.89a24.156 24.156 0 0021.794-23.984zM17.626 1.178c-.76.003-1.517.086-2.26.248-.02 0-.043.02-.065.02-20.405 7.057-20.404 38.326.022 45.364h.044c2.35.664 5.144.2 5.258-2.742v-5.847a3.005 3.005 0 00-2.999-2.992h-2.259a4.902 4.902 0 01-4.885-4.9V17.18a4.106 4.106 0 014.788-4.156h2.361a3.009 3.009 0 002.994-3.018V4.167a3.005 3.005 0 00-2.999-2.99zM19.14 38.22v5.843c-.04 1.644-1.817 1.644-3.034 1.372v-8.721h1.514a1.514 1.514 0 011.524 1.506h-.004zm-8.245-25.379a5.671 5.671 0 00-1.91 4.339v13.149a6.405 6.405 0 005.64 6.34v8.385a9.562 9.562 0 01-1.36-.582C-3.038 35.478-2.387 10.895 14.627 3.18v8.292a5.628 5.628 0 00-3.731 1.37zm8.249-2.836a1.514 1.514 0 01-1.514 1.506h-1.514V2.795c1.24-.24 2.97-.308 3.034 1.372l-.006 5.838z"/><path d="M25.92 26.734l7.04 7.506a.745.745 0 001.092-1.01l-7.031-7.508a3.002 3.002 0 00-1.134-4.227l3.077-13.103a.749.749 0 10-1.46-.339l-3.066 13.083c-4.932.483-3.007 7.667 1.483 5.598zm-2.911-2.608a1.49 1.49 0 012.978 0 1.489 1.489 0 01-2.976 0h-.002z"/></g><defs><clipPath id="clip0_41_56"><path fill="#fff" d="M0 0h50v50H0z"/></clipPath></defs></svg>