<svg width="176" height="200" fill="none" xmlns="http://www.w3.org/2000/svg"><path d="M103.125 148.625H6.25V58h146.875v40.625a3.125 3.125 0 106.25 0v-75a3.125 3.125 0 00-3.125-3.125H137.5v-9.375A3.125 3.125 0 00134.375 8H118.75a3.126 3.126 0 00-3.125 3.125V20.5H43.75v-9.375A3.125 3.125 0 0040.625 8H25a3.125 3.125 0 00-3.125 3.125V20.5H3.125A3.125 3.125 0 000 23.625V151.75a3.126 3.126 0 003.125 3.125h100a3.125 3.125 0 100-6.25zm18.75-134.375h9.375v21.875h-9.375V14.25zm-93.75 0H37.5v21.875h-9.375V14.25zM6.25 26.75h15.625v12.5A3.125 3.125 0 0025 42.375h15.625a3.125 3.125 0 003.125-3.125v-12.5h71.875v12.5a3.125 3.125 0 003.125 3.125h15.625a3.125 3.125 0 003.125-3.125v-12.5h15.625v25H6.25v-25zm28.125 40.625a3.125 3.125 0 00-3.125-3.125H15.625a3.125 3.125 0 00-3.125 3.125V83a3.125 3.125 0 003.125 3.125H31.25A3.125 3.125 0 0034.375 83V67.375zm-6.25 12.5H18.75V70.5h9.375v9.375zm34.375-12.5a3.125 3.125 0 00-3.125-3.125H43.75a3.125 3.125 0 00-3.125 3.125V83a3.125 3.125 0 003.125 3.125h15.625A3.125 3.125 0 0062.5 83V67.375zm-6.25 12.5h-9.375V70.5h9.375v9.375zm34.375-12.5A3.125 3.125 0 0087.5 64.25H71.875a3.125 3.125 0 00-3.125 3.125V83a3.125 3.125 0 003.125 3.125H87.5A3.125 3.125 0 0090.625 83V67.375zm-6.25 12.5H75V70.5h9.375v9.375zm34.375-12.5a3.125 3.125 0 00-3.125-3.125H100a3.125 3.125 0 00-3.125 3.125V83A3.125 3.125 0 00100 86.125h15.625A3.125 3.125 0 00118.75 83V67.375zm-6.25 12.5h-9.375V70.5h9.375v9.375zm15.625-15.625A3.125 3.125 0 00125 67.375V83a3.125 3.125 0 003.125 3.125h15.625A3.125 3.125 0 00146.875 83V67.375a3.125 3.125 0 00-3.125-3.125h-15.625zm12.5 15.625h-9.375V70.5h9.375v9.375zM34.375 95.5a3.125 3.125 0 00-3.125-3.125H15.625A3.125 3.125 0 0012.5 95.5v15.625a3.125 3.125 0 003.125 3.125H31.25a3.125 3.125 0 003.125-3.125V95.5zm-6.25 12.5H18.75v-9.375h9.375V108zM62.5 95.5a3.125 3.125 0 00-3.125-3.125H43.75a3.125 3.125 0 00-3.125 3.125v15.625a3.125 3.125 0 003.125 3.125h15.625a3.125 3.125 0 003.125-3.125V95.5zM56.25 108h-9.375v-9.375h9.375V108zm34.375-12.5a3.125 3.125 0 00-3.125-3.125H71.875A3.125 3.125 0 0068.75 95.5v15.625a3.125 3.125 0 003.125 3.125H87.5a3.125 3.125 0 003.125-3.125V95.5zm-6.25 12.5H75v-9.375h9.375V108zm31.25-15.625H100a3.125 3.125 0 00-3.125 3.125v15.625A3.125 3.125 0 00100 114.25h15.625a3.125 3.125 0 003.125-3.125V95.5a3.125 3.125 0 00-3.125-3.125zM112.5 108h-9.375v-9.375h9.375V108zm-81.25 12.5H15.625a3.125 3.125 0 00-3.125 3.125v15.625a3.125 3.125 0 003.125 3.125H31.25a3.125 3.125 0 003.125-3.125v-15.625a3.125 3.125 0 00-3.125-3.125zm-3.125 15.625H18.75v-9.375h9.375v9.375zm31.25-15.625H43.75a3.125 3.125 0 00-3.125 3.125v15.625a3.125 3.125 0 003.125 3.125h15.625a3.125 3.125 0 003.125-3.125v-15.625a3.125 3.125 0 00-3.125-3.125zm-3.125 15.625h-9.375v-9.375h9.375v9.375zM87.5 120.5H71.875a3.125 3.125 0 00-3.125 3.125v15.625a3.125 3.125 0 003.125 3.125H87.5a3.125 3.125 0 003.125-3.125v-15.625A3.125 3.125 0 0087.5 120.5zm-3.125 15.625H75v-9.375h9.375v9.375zM156.25 108A43.75 43.75 0 10200 151.75 43.802 43.802 0 00156.25 108zm0 81.25a37.496 37.496 0 01-26.516-10.984 37.496 37.496 0 010-53.032 37.496 37.496 0 0153.032 0 37.496 37.496 0 0110.984 26.516 37.54 37.54 0 01-37.5 37.5zm0-68.75a31.249 31.249 0 00-22.097 53.347A31.249 31.249 0 00187.5 151.75a31.292 31.292 0 00-9.163-22.087 31.292 31.292 0 00-22.087-9.163zm0 56.25a24.993 24.993 0 01-17.677-7.323 24.993 24.993 0 010-35.354 24.993 24.993 0 0135.354 0 24.993 24.993 0 017.323 17.677 25.024 25.024 0 01-7.331 17.669 25.024 25.024 0 01-17.669 7.331zm15.625-25a3.125 3.125 0 01-3.125 3.125h-12.5a3.125 3.125 0 01-3.125-3.125v-15.625a3.125 3.125 0 116.25 0v12.5h9.375a3.125 3.125 0 013.125 3.125z" fill="#C4986E" opacity=".2"/></svg>