<svg width="176" height="200" fill="none" xmlns="http://www.w3.org/2000/svg"><g opacity=".2" fill="#C4986E"><path d="M196.511 96.506A96.788 96.788 0 0091.006.394a3.082 3.082 0 00-2.702 3.33 3.102 3.102 0 003.289 2.698 90.473 90.473 0 0166.267 20.096 90.474 90.474 0 0112.552 127.338 90.478 90.478 0 01-61.07 32.647l-.038-7.374-17.992 10.44L109.337 200v-7.561a96.625 96.625 0 0062.063-31.178 96.612 96.612 0 0025.113-64.757l-.002.002zM70.505 4.71a43.17 43.17 0 00-9.037.993c-.084 0-.178.084-.265.084-81.62 28.227-81.617 153.302.087 181.453h.178c9.401 2.655 20.578.801 21.034-10.967v-23.391a12.022 12.022 0 00-11.997-11.965h-9.037a19.607 19.607 0 01-19.539-19.598V68.721a16.423 16.423 0 0119.152-16.626h9.444a12.035 12.035 0 0011.977-12.07V16.668A12.018 12.018 0 0070.505 4.712V4.71zm6.056 148.17v23.373c-.16 6.574-7.269 6.574-12.137 5.488l.002-34.885h6.055a6.056 6.056 0 016.095 6.025l-.015-.001zM43.578 51.365a22.685 22.685 0 00-7.64 17.353v52.598a25.618 25.618 0 0022.566 25.356v33.543a38.183 38.183 0 01-5.44-2.328C-12.158 141.913-9.553 43.58 58.505 12.722l-.001 33.165a22.512 22.512 0 00-14.926 5.478zM76.576 40.02a6.058 6.058 0 01-6.057 6.023h-6.056V11.18c4.962-.96 11.885-1.23 12.137 5.487l-.024 23.355z"/><path d="M103.682 106.936l28.161 30.026a2.979 2.979 0 004.137.087 2.976 2.976 0 00.229-4.131l-28.125-30.031a12.012 12.012 0 00-4.537-16.906l12.308-52.411a2.996 2.996 0 10-5.837-1.356l-12.266 52.33c-19.73 1.933-12.03 30.668 5.93 22.39v.002zM92.035 96.505a5.957 5.957 0 018.887-5.02 5.952 5.952 0 013.025 5.02 5.958 5.958 0 01-11.902 0h-.01z"/></g></svg>