<svg width="176" height="200" fill="none" xmlns="http://www.w3.org/2000/svg"><g opacity=".2" fill="#C4986E"><path d="M49.008 200c-.9 0-1.841-.196-2.703-.628-2.232-1.057-3.565-3.212-3.565-5.679l.078-12.456c-10.028-1.137-19.35-5.718-26.48-13.082C8.389 159.929 4 149.157 4 137.76c0-24.129 19.625-43.752 43.752-43.752h51.39c11.633 0 22.6 4.545 30.903 12.848a43.746 43.746 0 019.754 14.766c2.075 5.132 3.094 10.577 3.094 16.138 0 24.129-19.625 43.752-43.752 43.752h-24.52c-.509 0-1.018.195-1.41.509L52.964 198.59a6.194 6.194 0 01-3.956 1.41h.001zm-1.254-96.162c-18.723 0-33.96 15.237-33.96 33.96 0 8.812 3.408 17.195 9.596 23.581 6.15 6.384 14.376 10.067 23.15 10.38 3.446.118 6.11 2.938 6.11 6.346l-.038 8.187 14.414-11.752a12.052 12.052 0 017.638-2.703h24.52c18.723 0 33.96-15.237 33.96-33.96 0-4.308-.823-8.539-2.39-12.495-1.723-4.308-4.269-8.148-7.559-11.476-6.423-6.423-14.962-9.988-23.972-9.988H47.755l-.001-.08z"/><path d="M101.612 145.715a7.272 7.272 0 007.287-7.286 7.272 7.272 0 00-7.287-7.286 7.272 7.272 0 00-7.286 7.286c.039 4.035 3.29 7.286 7.286 7.286zm-28.592 0a7.272 7.272 0 007.287-7.286 7.272 7.272 0 00-7.287-7.286c-3.994 0-7.286 3.251-7.286 7.286a7.272 7.272 0 007.286 7.286zm-28.631 0c3.994 0 7.286-3.251 7.286-7.286a7.272 7.272 0 00-7.286-7.286 7.272 7.272 0 00-7.287 7.286c.039 4.035 3.29 7.286 7.287 7.286zm107.478-39.76a6.03 6.03 0 01-3.956-1.448l-20.212-16.529c-.391-.314-.9-.51-1.409-.51h-24.52c-24.129 0-43.752-19.624-43.752-43.751a43.628 43.628 0 013.094-16.138c2.194-5.522 5.484-10.497 9.754-14.766C79.169 4.583 90.136 0 101.77 0h51.389c24.129 0 43.752 19.625 43.752 43.752 0 11.358-4.388 22.169-12.338 30.394-7.13 7.403-16.452 11.948-26.48 13.082l.078 12.457a6.236 6.236 0 01-3.565 5.679 6.882 6.882 0 01-2.74.591h.001zM101.771 9.794c-9.01 0-17.547 3.526-23.972 9.987-3.328 3.329-5.875 7.169-7.56 11.477-1.604 3.994-2.389 8.187-2.389 12.495 0 18.722 15.237 33.96 33.96 33.96h24.52c2.781 0 5.483.98 7.598 2.703l14.414 11.79-.039-8.187a6.343 6.343 0 016.071-6.346c8.773-.313 16.999-3.994 23.187-10.38 6.189-6.384 9.558-14.767 9.558-23.58 0-18.724-15.237-33.96-33.96-33.96l-51.389.002.001.039z"/><path d="M108.701 52.727c-.9 0-1.88-1.058-1.998-2.156l-1.567-26.009c0-1.527.509-2.742 1.528-3.799 1.057-1.057 2.31-1.566 3.799-1.566h.509c1.294 0 5.132.784 4.7 5.758l-1.528 25.616c-.118.9-.939 2.155-2.076 2.155h-3.367zm25.97-.392c-1.019 0-1.88-.862-1.842-1.88.078-2.351.314-4.27.744-5.68.509-1.723 2.114-3.642 4.818-5.875a27.343 27.343 0 003.251-3.016c.823-.94 1.214-2.115 1.214-3.486 0-3.133-1.294-4.856-3.838-5.25-.627-.117-1.175-.117-1.685-.117-1.802 0-3.133.548-4.074 1.646-.509.509-.939 1.723-1.214 2.86-.352 1.332-1.528 2.31-2.899 2.466-1.489.157-3.212.275-4.035.235-1.958-.118-2.899-1.567-2.899-4.309 0-2.86 1.567-5.836 3.722-7.912 1.88-1.645 4.545-2.898 7.521-3.564 1.293-.314 2.742-.432 4.19-.432 1.567 0 3.174.195 4.818.587 2.976.704 5.522 2.155 7.638 4.308 2.194 2.232 3.252 5.25 3.252 9.048 0 3.056-.628 5.407-1.881 7.05-1.214 1.567-2.507 2.938-3.994 4.075-1.214.98-2.508 2.037-3.761 3.212-1.057.98-1.527 2.39-1.448 4.152a1.798 1.798 0 01-1.803 1.802l-5.795.08zm4.858 2.741a3.326 3.326 0 013.328 3.329v3.642a3.284 3.284 0 01-3.29 3.29h-3.681a3.326 3.326 0 01-3.328-3.329v-2.937c0-2.703 1.293-4.035 3.917-4.035h3.054v.04zm-27.224 0a3.326 3.326 0 013.328 3.329v3.642a3.284 3.284 0 01-3.29 3.29h-3.681a3.326 3.326 0 01-3.328-3.329v-2.937c0-2.703 1.293-4.035 3.917-4.035h3.054v.04z"/></g></svg>