<svg width="176" height="200" fill="none" xmlns="http://www.w3.org/2000/svg"><g opacity=".2" clip-path="url(#clip0_41_84)" fill="#C4986E"><path d="M45.024 150.679a3.226 3.226 0 00-3.087-2.291H31.553l-2.615-10.459a3.227 3.227 0 00-6.26 0l-2.614 10.459H9.679a3.226 3.226 0 00-1.79 5.91l7.786 5.191L13 170.187a3.225 3.225 0 005.126 3.317l7.682-6.046 7.683 6.045a3.22 3.22 0 003.747.173 3.228 3.228 0 001.377-3.491l-2.674-10.697 7.786-5.192a3.22 3.22 0 001.297-3.617zm-14.554 4.703a3.226 3.226 0 00-1.34 3.467l.938 3.754-2.266-1.783a3.223 3.223 0 00-3.99 0l-2.265 1.783.939-3.754a3.227 3.227 0 00-1.341-3.467l-.812-.543h2.249c1.48 0 2.77-1.007 3.13-2.444l.096-.384.096.385a3.226 3.226 0 003.13 2.444h2.248l-.812.542zm59.72-4.703a3.226 3.226 0 00-3.088-2.291H76.717l-2.615-10.459a3.226 3.226 0 00-6.258 0l-2.616 10.459H54.843a3.226 3.226 0 00-1.79 5.91l7.786 5.191-2.675 10.698a3.225 3.225 0 005.126 3.317l7.683-6.046 7.683 6.045a3.221 3.221 0 003.747.173 3.228 3.228 0 001.377-3.491l-2.674-10.697 7.786-5.192a3.224 3.224 0 001.298-3.617zm-14.555 4.703a3.226 3.226 0 00-1.34 3.467l.939 3.754-2.266-1.783a3.223 3.223 0 00-3.99 0l-2.266 1.783.94-3.754a3.227 3.227 0 00-1.342-3.467l-.813-.543h2.249c1.48 0 2.77-1.007 3.13-2.444l.096-.385.096.385a3.226 3.226 0 003.13 2.444h2.248l-.81.543zm72.62-4.703a3.228 3.228 0 00-3.087-2.291h-10.386l-2.614-10.459a3.226 3.226 0 00-6.259 0l-2.615 10.459h-10.386a3.226 3.226 0 00-1.79 5.91l7.787 5.191-2.675 10.698a3.227 3.227 0 005.126 3.317l7.681-6.046 7.684 6.045a3.22 3.22 0 003.747.173 3.229 3.229 0 001.377-3.491l-2.675-10.697 7.787-5.192a3.222 3.222 0 001.298-3.617zm-14.555 4.703a3.225 3.225 0 00-1.341 3.467l.939 3.754-2.266-1.783a3.221 3.221 0 00-3.99 0l-2.266 1.783.939-3.754a3.226 3.226 0 00-1.34-3.467l-.812-.543h2.249c1.48 0 2.77-1.007 3.129-2.444l.096-.385.096.385a3.227 3.227 0 003.13 2.444h2.249l-.812.543zm59.717-4.703a3.227 3.227 0 00-3.088-2.291h-10.385l-2.614-10.459a3.226 3.226 0 00-6.259 0l-2.616 10.459h-10.383a3.227 3.227 0 00-1.79 5.91l7.786 5.191-2.675 10.698a3.227 3.227 0 005.126 3.317l7.682-6.046 7.683 6.045a3.22 3.22 0 003.747.173 3.227 3.227 0 001.377-3.491l-2.674-10.697 7.786-5.192a3.221 3.221 0 001.297-3.617zm-14.554 4.703a3.228 3.228 0 00-1.341 3.467l.939 3.754-2.266-1.783a3.221 3.221 0 00-3.99 0l-2.265 1.783.939-3.754a3.228 3.228 0 00-1.341-3.467l-.813-.543h2.25a3.224 3.224 0 003.129-2.444l.096-.385.097.385a3.226 3.226 0 003.129 2.444h2.249l-.812.543zM.001 180.644h200.005v6.452H.001v-6.452zm0 12.904h200.005V200H.001v-6.452z"/><path d="M200.006 116.128v-6.452l-46.619.001a97.153 97.153 0 004.25-5.804c10.836-16.004 16.563-34.68 16.563-54.005V11.653l-16.71 5.57a41.423 41.423 0 01-13.136 2.133c-11.095 0-21.527-4.321-29.373-12.167L113.3 5.507A18.683 18.683 0 00100.004 0a18.684 18.684 0 00-13.296 5.507l-1.68 1.68c-7.848 7.848-18.278 12.17-29.374 12.17-4.473 0-8.893-.717-13.137-2.132l-16.71-5.57v38.214c0 19.328 5.728 38.001 16.564 54.005a97.408 97.408 0 004.25 5.804H.001v6.452h52.205a95.514 95.514 0 006.723 6.453L0 122.58v6.453h67.23a96.583 96.583 0 0019.134 10.276 36.571 36.571 0 0013.639 2.626c4.693 0 9.283-.884 13.64-2.628a96.47 96.47 0 0019.134-10.276h67.227v-6.452l-58.93.001a96.277 96.277 0 006.723-6.452h52.209zm-88.759 17.191a30.13 30.13 0 01-11.243 2.165 30.13 30.13 0 01-11.243-2.165c-34.323-13.73-56.502-46.487-56.502-83.452V20.602l8.218 2.739a47.918 47.918 0 0015.176 2.462c12.818 0 24.87-4.992 33.935-14.055l1.681-1.683a12.269 12.269 0 018.733-3.616c3.3 0 6.401 1.285 8.732 3.618l1.683 1.682c9.064 9.063 21.117 14.055 33.935 14.055 5.168 0 10.274-.829 15.176-2.463l8.217-2.738v29.265c0 36.965-22.176 69.72-56.501 83.452l.003-.001z"/><path d="M144.355 32.256c-14.543 0-28.215-5.663-38.497-15.946l-1.682-1.681a5.86 5.86 0 00-4.171-1.729 5.862 5.862 0 00-4.17 1.727l-1.683 1.683C83.87 26.592 70.198 32.256 55.655 32.256c-4.364 0-8.721-.526-12.948-1.561l-3.995-.981v20.153c0 16.738 4.96 32.912 14.344 46.772 9.383 13.861 22.559 24.472 38.1 30.689a23.731 23.731 0 008.848 1.703c3.044 0 6.021-.573 8.848-1.703 15.542-6.217 28.716-16.828 38.101-30.689 9.385-13.86 14.345-30.034 14.345-46.772V29.714l-3.995.98a54.422 54.422 0 01-12.948 1.562zm10.49 17.61a76.698 76.698 0 01-13.234 43.155 76.68 76.68 0 01-35.153 28.316 17.315 17.315 0 01-6.453 1.243 17.3 17.3 0 01-6.45-1.243c-14.34-5.736-26.497-15.527-35.155-28.316a76.695 76.695 0 01-13.234-43.154v-12.07c3.458.605 6.971.91 10.49.91 16.265 0 31.557-6.334 43.058-17.835l1.29-1.29 1.291 1.29c11.501 11.501 26.793 17.835 43.058 17.835 3.519 0 7.032-.305 10.49-.91l.002 12.07z"/><path d="M100.004 35.847L82.899 63.214 60.114 48.023l8.125 48.75h63.53l8.125-48.75-22.786 15.191-17.103-27.367zm26.301 54.477H73.704l-4.779-28.67L84.85 72.27l15.156-24.248L115.16 72.27l15.924-10.616-4.779 28.67z"/></g><defs><clipPath id="clip0_41_84"><path fill="#fff" d="M0 0h200v200H0z"/></clipPath></defs></svg>