<svg width="50" height="47" fill="none" xmlns="http://www.w3.org/2000/svg"><path d="M7.5 0C3.598 0 0 3.114 0 7.083v32.07a.835.835 0 00.036.261c-.002.062-.036.11-.036.17 0 3.901 3.181 7.083 7.083 7.083.07 0 .14-.009.209-.026a.836.836 0 00.208.026h30c.46 0 .833-.373.833-.834V9.167a.833.833 0 00-.833-.834H8.333v-7.5A.833.833 0 007.5 0zm33.333 0A.833.833 0 0040 .833v45c0 .46.373.834.833.834h8.334c.46 0 .833-.374.833-.834v-45A.833.833 0 0049.167 0h-8.334zm.834 1.667h6.666V5H45v1.667h3.333V10h-5v1.667h5V15H45v1.667h3.333V20h-5v1.667h5V25H45v1.667h3.333V30h-5v1.666h5V35H45v1.666h3.333V40h-5v1.666h5V45h-6.666V1.667zm-35 .335V9.03a.84.84 0 000 .273v23.36a7.583 7.583 0 00-5 2.73V7.087c0-2.632 2.364-4.645 5-5.085zM8.333 10h28.334v35H7.5a.833.833 0 00-.208.023.833.833 0 00-.208-.023 5.404 5.404 0 01-5.417-5.417c0-2.934 2.832-5.416 5.833-5.416.46 0 .833-.374.833-.834V10zm16.663 6.66l-4.853.02a.84.84 0 00-.674.179l-.023.02a.481.481 0 00-.023.019l-.026.029-.016.016a.735.735 0 00-.039.046L11.92 25.23a.817.817 0 00-.136.18.83.83 0 00-.118.422V37.5c0 .46.373.833.834.833h5c.46 0 .833-.373.833-.833v-5.834h3.333V37.5c0 .46.373.833.834.833h10c.46 0 .833-.373.833-.833V25.98a.834.834 0 00-.215-.71l-7.5-8.333a.833.833 0 00-.622-.277zm-.364 1.67L30.634 25H27.87l-5.995-6.66 2.757-.01zM20 18.747L25.628 25H14.371L20 18.747zm-6.667 7.92h13.333v10h-3.333v-5.834A.833.833 0 0022.5 30h-5a.833.833 0 00-.834.833v5.834h-3.333v-10zm15 0h3.333v10h-3.333v-10z" fill="#C4986E"/></svg>