<svg width="40" height="40" fill="none" xmlns="http://www.w3.org/2000/svg"><path d="M39.355 20.645h-.645A18.708 18.708 0 0025 3.265l.161-2.581a.644.644 0 00-.174-.477.645.645 0 00-.47-.207h-9.033a.645.645 0 00-.471.207.644.644 0 00-.174.477L15 3.264A18.71 18.71 0 001.29 20.645H.645A.645.645 0 000 21.29v5.162a.646.646 0 00.645.645h1.936v8.387A4.515 4.515 0 007.097 40h9.677a.645.645 0 00.458-.187L20 37.039l2.768 2.774a.65.65 0 00.458.187h10.968a4.515 4.515 0 004.516-4.516v-8.387h.645A.645.645 0 0040 26.45v-5.16a.645.645 0 00-.645-.646zm-1.936 0H23.91l1.007-16.058A17.42 17.42 0 0137.42 20.645zM23.871 1.29l-1.252 19.355h-5.238L16.168 1.29h7.703zm-8.787 3.297l1.006 16.058H2.58A17.418 17.418 0 0115.083 4.587zm22.335 30.897a3.227 3.227 0 01-3.225 3.226H23.49l-3.032-3.039a.645.645 0 00-.916 0L16.51 38.71H7.097a3.227 3.227 0 01-3.225-3.226v-8.387h1.29v8.387a1.935 1.935 0 001.935 1.935h9.033a.645.645 0 00.457-.187l3.414-3.42 3.413 3.42a.642.642 0 00.458.187h10.322a1.935 1.935 0 001.936-1.935v-8.387h1.29v8.387zm-7.67-5.452l-3.052 6.097h-1.78l4.515-9.032h5.407v8.387a.645.645 0 01-.645.645h-6.052l2.755-5.516-1.149-.58zm-6.052 5.652l-3.226-3.226a.645.645 0 00-.916 0l-3.69 3.671h-3.871l2.755-5.516-1.149-.58-3.032 6.096h-1.78l4.515-9.032h14.684l-4.29 8.587zm-16.355.445h-.245a.645.645 0 01-.645-.645v-8.387h5.406l-4.516 9.032zM38.71 25.806H1.29v-3.87h37.42v3.87z" fill="#fff"/></svg>