<svg width="40" height="40" fill="none" xmlns="http://www.w3.org/2000/svg"><path d="M39.375 17.555h-1.07l.001-5.763a3.244 3.244 0 00-2.615-3.179V3.006c0-.777-.63-1.406-1.406-1.406H4.102A4.106 4.106 0 000 5.701v28.84a3.243 3.243 0 003.24 3.24h31.826a3.243 3.243 0 003.24-3.24v-5.764h1.069c.345 0 .625-.28.625-.625v-9.971a.626.626 0 00-.626-.625zM4.102 2.85h30.183c.086.001.155.07.156.156v5.547H4.101a2.851 2.851 0 11.001-5.703zm32.955 31.69a1.993 1.993 0 01-1.99 1.99H3.24a1.993 1.993 0 01-1.99-1.99V8.647a4.086 4.086 0 002.851 1.156h30.965a1.993 1.993 0 011.99 1.99v5.763h-3.933a5.61 5.61 0 100 11.222h3.932v5.762zm1.693-7.013h-5.626a4.36 4.36 0 110-8.722h5.626v8.722zm-8.697-4.36a2.22 2.22 0 104.44 0 2.22 2.22 0 00-4.44 0zm3.19 0a.97.97 0 11-1.94 0 .97.97 0 011.94 0z" fill="#fff"/></svg>