<svg width="40" height="40" fill="none" xmlns="http://www.w3.org/2000/svg"><path d="M.352 19.855V14.69l3.434-1.125c.318-1.2.791-2.354 1.408-3.43L3.556 6.888l3.622-3.66 3.22 1.656h-.001a14.047 14.047 0 013.393-1.417L14.906 0h5.131l1.117 3.468c1.189.32 2.33.797 3.394 1.417l3.218-1.656 3.623 3.66-1.638 3.245a14.28 14.28 0 011.407 3.434l3.434 1.126v5.164l-3.434 1.126a14.304 14.304 0 01-.914 2.48c.039.42-.106.835-.398 1.14l.754 1.493 8.495 8.571a3.147 3.147 0 010 4.417 3.094 3.094 0 01-4.392 0l-8.496-8.57-1.472-.758c-.27.264-.63.411-1.007.41-.04 0-.079-.008-.118-.011-.788.383-1.61.691-2.456.921l-1.116 3.468h-5.13l-1.117-3.47a13.983 13.983 0 01-3.393-1.415l-3.22 1.656-3.622-3.659 1.638-3.245a14.22 14.22 0 01-1.407-3.434L.352 19.855zm17.122-12.81a9.99 9.99 0 00-5.616 1.712 10.283 10.283 0 000 17.032 10.068 10.068 0 0011.23 0 10.281 10.281 0 000-17.032 9.988 9.988 0 00-5.614-1.711zM27.852 22.25a15.086 15.086 0 01-5.451 5.497l1.144 1.155c.031.03.07.053.113.064a.27.27 0 00.07.011.26.26 0 00.18-.074l2.54-2.562 1.792-1.808.747-.756a.272.272 0 00.06-.274.257.257 0 00-.061-.108l-1.134-1.145zm7.696 15.998a1.925 1.925 0 002.703-2.74l-8.562-8.638-1.03-1.04-.012-.012-2.708 2.733 1.049 1.058 8.56 8.64zM4.863 20.378a13.07 13.07 0 001.52 3.705l.169.282-1.546 3.067 2.404 2.427 3.036-1.56.286.175a12.8 12.8 0 003.666 1.532l.323.079 1.054 3.272h3.394l1.053-3.271.323-.079a12.904 12.904 0 001.826-.598l-.644-.65-.651-.655c-.057.02-.118.033-.176.05-.116.038-.233.07-.35.104a11.019 11.019 0 01-1.716.343c-.109.013-.216.03-.326.04-.343.03-.687.05-1.035.05v.001a11.18 11.18 0 01-7.174-2.583c-.289-.24-.567-.494-.834-.763a11.504 11.504 0 010-16.146c.267-.269.545-.523.834-.763a11.176 11.176 0 017.174-2.583 11.174 11.174 0 016.28 1.914c.62.42 1.2.9 1.727 1.433a10.875 10.875 0 01.87 1c.172.217.333.44.486.666.04.06.083.118.122.177.18.281.348.568.503.86.036.07.068.14.103.209.119.237.229.477.33.72a11.624 11.624 0 01.424 1.18c.008.022.012.046.02.07a11.493 11.493 0 01.377 1.962c.007.06.016.12.021.182a11.187 11.187 0 01.006 1.983c-.007.086-.012.17-.021.258-.034.324-.078.646-.138.966l-.026.118a11.999 11.999 0 01-.281 1.11c-.027.089-.047.17-.075.252l.764.771.527.533c.242-.598.44-1.213.591-1.84l.077-.323 3.243-1.063v-3.438L30.16 14.49l-.077-.323a13.078 13.078 0 00-1.52-3.706l-.169-.282 1.547-3.063-2.408-2.428-3.034 1.56-.286-.175a12.776 12.776 0 00-3.668-1.532l-.324-.08-1.053-3.27h-3.394l-1.054 3.27-.323.08a12.817 12.817 0 00-3.667 1.532l-.285.175L7.41 4.69 5.006 7.116l1.546 3.066-.169.281a13.078 13.078 0 00-1.52 3.704l-.077.323-3.244 1.064v3.438l3.243 1.066.078.32zm18.395 2.725a8.093 8.093 0 01-5.784 2.418 8.09 8.09 0 01-5.785-2.418 8.307 8.307 0 010-11.66 8.091 8.091 0 015.785-2.42 8.093 8.093 0 015.784 2.421 8.309 8.309 0 010 11.66zm-.845-10.822a6.903 6.903 0 00-4.94-2.064 6.905 6.905 0 00-4.938 2.065 7.112 7.112 0 000 9.983 6.909 6.909 0 004.939 2.064 6.903 6.903 0 004.937-2.064 7.111 7.111 0 000-9.983h.002z" fill="#fff"/></svg>