<svg width="26" height="26" fill="none" xmlns="http://www.w3.org/2000/svg"><g clip-path="url(#clip0_17_455)"><path d="M13 0C5.832 0 0 5.832 0 13c0 3.14 1.119 6.023 2.979 8.271.004.007.005.015.01.021a12.997 12.997 0 004.909 3.663c.022.01.043.02.065.028.152.064.305.124.46.182l.183.068a12.69 12.69 0 001.02.32c.106.028.212.055.319.08a11.865 11.865 0 00.692.147c.099.018.197.037.297.053.136.022.274.04.412.057.088.012.177.025.266.034.156.017.313.028.471.04.073.004.146.012.22.016a12.365 12.365 0 001.395 0c.074-.003.147-.01.22-.016.158-.011.315-.022.47-.039.09-.01.178-.023.267-.034.138-.017.276-.035.412-.057.1-.016.198-.035.297-.053a12.925 12.925 0 00.692-.147 12.727 12.727 0 001.34-.4l.182-.068c.155-.058.308-.118.46-.182l.065-.028a12.999 12.999 0 004.909-3.663c.005-.006.005-.015.01-.02A12.947 12.947 0 0026 13c0-7.168-5.832-13-13-13zm5.268 23.929l-.019.01c-.155.074-.312.144-.47.212l-.108.046a11.83 11.83 0 01-1.213.431 10.882 10.882 0 01-.63.17c-.102.023-.204.048-.306.07-.113.024-.226.044-.338.064-.092.017-.183.035-.275.05-.127.02-.255.036-.383.052-.081.01-.162.022-.244.03-.146.017-.293.026-.44.037-.066.004-.13.012-.197.015a12.257 12.257 0 01-1.29 0c-.066-.003-.13-.01-.197-.015-.147-.01-.294-.02-.44-.036-.082-.009-.162-.02-.243-.031-.128-.016-.256-.032-.383-.052-.093-.015-.184-.033-.275-.05a9.584 9.584 0 01-.338-.064c-.103-.022-.205-.047-.306-.07-.097-.024-.194-.047-.29-.073a12.49 12.49 0 01-1.553-.528c-.036-.014-.072-.03-.107-.045a11.972 11.972 0 01-.49-.223A12.192 12.192 0 013.8 20.9a9.564 9.564 0 016.26-6.56c.06.036.123.069.185.104.036.02.072.042.109.061.13.069.26.133.394.19.102.045.209.083.314.122l.063.023a5.6 5.6 0 001.874.328c.658 0 1.287-.12 1.874-.328l.062-.023c.106-.039.212-.077.315-.122a5.36 5.36 0 00.394-.19l.109-.061c.062-.035.125-.068.186-.105a9.567 9.567 0 016.26 6.56 12.203 12.203 0 01-3.932 3.03zM8.233 9.533A4.772 4.772 0 0113 4.767a4.772 4.772 0 014.767 4.766 4.764 4.764 0 01-2.705 4.291l-.064.031a4.875 4.875 0 01-3.996 0l-.064-.03a4.764 4.764 0 01-2.704-4.29zm14.616 10.54a10.44 10.44 0 00-6.087-6.358 5.615 5.615 0 001.871-4.182A5.64 5.64 0 0013 3.9a5.64 5.64 0 00-5.633 5.633c0 1.66.725 3.15 1.871 4.182a10.442 10.442 0 00-6.087 6.358A12.062 12.062 0 01.867 13C.867 6.31 6.31.867 13 .867 19.69.867 25.133 6.31 25.133 13c0 2.638-.849 5.08-2.284 7.073z" fill="#999"/></g><defs><clipPath id="clip0_17_455"><path fill="#fff" d="M0 0h26v26H0z"/></clipPath></defs></svg>